<mxfile host="app.diagrams.net" modified="2023-11-26T21:39:24.148Z" agent="Mozilla/5.0 (Windows NT 10.0; Win64; x64) AppleWebKit/537.36 (KHTML, like Gecko) Chrome/119.0.0.0 Safari/537.36 Edg/119.0.0.0" etag="Hw3p04EtOOusGs2Wo9gj" version="22.1.4" type="github">
  <diagram name="Page-1" id="bfe91b75-5d2c-26a0-9c1d-138518896778">
    <mxGraphModel dx="1423" dy="819" grid="1" gridSize="10" guides="1" tooltips="1" connect="1" arrows="1" fold="1" page="1" pageScale="1" pageWidth="1100" pageHeight="850" background="none" math="0" shadow="0">
      <root>
        <mxCell id="0" />
        <mxCell id="1" parent="0" />
        <mxCell id="h5CvUJYgVrHiaaVriEkw-27" value="&lt;font style=&quot;font-size: 16px;&quot;&gt;Firewall&amp;nbsp; &amp;nbsp;172.16.100.2/22&lt;/font&gt;" style="text;strokeColor=none;align=center;fillColor=none;html=1;verticalAlign=middle;whiteSpace=wrap;rounded=0;" vertex="1" parent="1">
          <mxGeometry x="1750" y="360" width="110" height="30" as="geometry" />
        </mxCell>
        <mxCell id="h5CvUJYgVrHiaaVriEkw-28" value="&lt;font style=&quot;font-size: 14px;&quot;&gt;CAT6&lt;/font&gt;" style="text;strokeColor=none;align=center;fillColor=none;html=1;verticalAlign=middle;whiteSpace=wrap;rounded=0;" vertex="1" parent="1">
          <mxGeometry x="1690" y="460" width="60" height="30" as="geometry" />
        </mxCell>
        <mxCell id="h5CvUJYgVrHiaaVriEkw-30" value="&lt;font style=&quot;font-size: 16px;&quot;&gt;Router&lt;br&gt;172.16.100.1/22&lt;br&gt;&lt;/font&gt;" style="text;strokeColor=none;align=center;fillColor=none;html=1;verticalAlign=middle;whiteSpace=wrap;rounded=0;" vertex="1" parent="1">
          <mxGeometry x="1774.37" y="555" width="60" height="30" as="geometry" />
        </mxCell>
        <mxCell id="h5CvUJYgVrHiaaVriEkw-31" value="" style="image;html=1;image=img/lib/clip_art/networking/Router_Icon_128x128.png" vertex="1" parent="1">
          <mxGeometry x="1655.01" y="510" width="80" height="90" as="geometry" />
        </mxCell>
        <mxCell id="h5CvUJYgVrHiaaVriEkw-36" value="&lt;span style=&quot;font-size: 16px;&quot;&gt;Cloud&lt;/span&gt;" style="text;strokeColor=none;align=center;fillColor=none;html=1;verticalAlign=middle;whiteSpace=wrap;rounded=0;" vertex="1" parent="1">
          <mxGeometry x="1661.45" y="60" width="60" height="30" as="geometry" />
        </mxCell>
        <mxCell id="h5CvUJYgVrHiaaVriEkw-39" value="&lt;font style=&quot;font-size: 16px;&quot;&gt;switch&lt;br&gt;172.16.100.3/22&lt;/font&gt;" style="text;strokeColor=none;align=center;fillColor=none;html=1;verticalAlign=middle;whiteSpace=wrap;rounded=0;" vertex="1" parent="1">
          <mxGeometry x="1600" y="680" width="60" height="30" as="geometry" />
        </mxCell>
        <mxCell id="h5CvUJYgVrHiaaVriEkw-42" value="" style="line;strokeWidth=2;direction=south;html=1;" vertex="1" parent="1">
          <mxGeometry x="1690" y="580" width="10" height="160" as="geometry" />
        </mxCell>
        <mxCell id="h5CvUJYgVrHiaaVriEkw-43" value="" style="fontColor=#0066CC;verticalAlign=top;verticalLabelPosition=bottom;labelPosition=center;align=center;html=1;outlineConnect=0;fillColor=#CCCCCC;strokeColor=#6881B3;gradientColor=none;gradientDirection=north;strokeWidth=2;shape=mxgraph.networks.switch;" vertex="1" parent="1">
          <mxGeometry x="1650" y="720" width="100" height="30" as="geometry" />
        </mxCell>
        <mxCell id="h5CvUJYgVrHiaaVriEkw-44" value="" style="line;strokeWidth=2;direction=south;html=1;" vertex="1" parent="1">
          <mxGeometry x="1690.01" y="370" width="10" height="160" as="geometry" />
        </mxCell>
        <mxCell id="h5CvUJYgVrHiaaVriEkw-45" value="" style="image;aspect=fixed;perimeter=ellipsePerimeter;html=1;align=center;shadow=0;dashed=0;spacingTop=3;image=img/lib/active_directory/firewall.svg;" vertex="1" parent="1">
          <mxGeometry x="1666.45" y="315" width="67.1" height="110" as="geometry" />
        </mxCell>
        <mxCell id="h5CvUJYgVrHiaaVriEkw-47" value="&lt;font style=&quot;font-size: 14px;&quot;&gt;CAT6&lt;/font&gt;" style="text;strokeColor=none;align=center;fillColor=none;html=1;verticalAlign=middle;whiteSpace=wrap;rounded=0;" vertex="1" parent="1">
          <mxGeometry x="1700" y="645" width="60" height="30" as="geometry" />
        </mxCell>
        <mxCell id="h5CvUJYgVrHiaaVriEkw-48" value="" style="line;strokeWidth=2;direction=south;html=1;" vertex="1" parent="1">
          <mxGeometry x="1690" y="170" width="10" height="160" as="geometry" />
        </mxCell>
        <mxCell id="h5CvUJYgVrHiaaVriEkw-49" value="" style="image;aspect=fixed;perimeter=ellipsePerimeter;html=1;align=center;shadow=0;dashed=0;spacingTop=3;image=img/lib/active_directory/internet_cloud.svg;" vertex="1" parent="1">
          <mxGeometry x="1620.64" y="110" width="158.73" height="100" as="geometry" />
        </mxCell>
        <mxCell id="h5CvUJYgVrHiaaVriEkw-54" value="" style="verticalLabelPosition=bottom;html=1;verticalAlign=top;align=center;strokeColor=none;fillColor=#00BEF2;shape=mxgraph.azure.computer;pointerEvents=1;" vertex="1" parent="1">
          <mxGeometry x="2210" y="840" width="100" height="100" as="geometry" />
        </mxCell>
        <mxCell id="h5CvUJYgVrHiaaVriEkw-55" value="" style="verticalLabelPosition=bottom;html=1;verticalAlign=top;align=center;strokeColor=none;fillColor=#00BEF2;shape=mxgraph.azure.computer;pointerEvents=1;" vertex="1" parent="1">
          <mxGeometry x="1520" y="1050" width="100" height="100" as="geometry" />
        </mxCell>
        <mxCell id="h5CvUJYgVrHiaaVriEkw-56" value="" style="verticalLabelPosition=bottom;html=1;verticalAlign=top;align=center;strokeColor=none;fillColor=#00BEF2;shape=mxgraph.azure.computer;pointerEvents=1;" vertex="1" parent="1">
          <mxGeometry x="1721.4499999999998" y="1080" width="100" height="100" as="geometry" />
        </mxCell>
        <mxCell id="h5CvUJYgVrHiaaVriEkw-57" value="" style="verticalLabelPosition=bottom;html=1;verticalAlign=top;align=center;strokeColor=none;fillColor=#00BEF2;shape=mxgraph.azure.computer;pointerEvents=1;" vertex="1" parent="1">
          <mxGeometry x="1910" y="1070" width="100" height="100" as="geometry" />
        </mxCell>
        <mxCell id="h5CvUJYgVrHiaaVriEkw-58" value="" style="verticalLabelPosition=bottom;html=1;verticalAlign=top;align=center;strokeColor=none;fillColor=#00BEF2;shape=mxgraph.azure.computer;pointerEvents=1;" vertex="1" parent="1">
          <mxGeometry x="2100" y="1030" width="100" height="100" as="geometry" />
        </mxCell>
        <mxCell id="h5CvUJYgVrHiaaVriEkw-60" value="" style="verticalLabelPosition=bottom;html=1;verticalAlign=top;align=center;strokeColor=none;fillColor=#00BEF2;shape=mxgraph.azure.laptop;pointerEvents=1;" vertex="1" parent="1">
          <mxGeometry x="1180" y="480" width="120" height="90" as="geometry" />
        </mxCell>
        <mxCell id="h5CvUJYgVrHiaaVriEkw-61" value="" style="verticalLabelPosition=bottom;html=1;verticalAlign=top;align=center;strokeColor=none;fillColor=#00BEF2;shape=mxgraph.azure.mobile;pointerEvents=1;" vertex="1" parent="1">
          <mxGeometry x="1368" y="350" width="60" height="90" as="geometry" />
        </mxCell>
        <mxCell id="h5CvUJYgVrHiaaVriEkw-62" value="" style="html=1;verticalLabelPosition=bottom;align=center;labelBackgroundColor=#ffffff;verticalAlign=top;strokeWidth=2;strokeColor=#0080F0;shadow=0;dashed=0;shape=mxgraph.ios7.icons.printer;" vertex="1" parent="1">
          <mxGeometry x="2140" y="620" width="120" height="100" as="geometry" />
        </mxCell>
        <mxCell id="h5CvUJYgVrHiaaVriEkw-64" value="" style="image;aspect=fixed;perimeter=ellipsePerimeter;html=1;align=center;shadow=0;dashed=0;spacingTop=3;image=img/lib/active_directory/database_server.svg;" vertex="1" parent="1">
          <mxGeometry x="1279.9999999999998" y="760" width="114.8" height="140" as="geometry" />
        </mxCell>
        <mxCell id="h5CvUJYgVrHiaaVriEkw-65" value="" style="image;aspect=fixed;perimeter=ellipsePerimeter;html=1;align=center;shadow=0;dashed=0;spacingTop=3;image=img/lib/active_directory/web_server.svg;" vertex="1" parent="1">
          <mxGeometry x="1330" y="950" width="96" height="120" as="geometry" />
        </mxCell>
        <mxCell id="h5CvUJYgVrHiaaVriEkw-78" value="" style="endArrow=none;html=1;rounded=0;entryX=0.5;entryY=1;entryDx=0;entryDy=0;entryPerimeter=0;strokeWidth=2;" edge="1" parent="1" source="h5CvUJYgVrHiaaVriEkw-55" target="h5CvUJYgVrHiaaVriEkw-43">
          <mxGeometry width="50" height="50" relative="1" as="geometry">
            <mxPoint x="1740" y="870" as="sourcePoint" />
            <mxPoint x="1790" y="820" as="targetPoint" />
          </mxGeometry>
        </mxCell>
        <mxCell id="h5CvUJYgVrHiaaVriEkw-79" value="" style="endArrow=none;html=1;rounded=0;strokeWidth=2;" edge="1" parent="1" source="h5CvUJYgVrHiaaVriEkw-64" target="h5CvUJYgVrHiaaVriEkw-43">
          <mxGeometry width="50" height="50" relative="1" as="geometry">
            <mxPoint x="1740" y="870" as="sourcePoint" />
            <mxPoint x="1790" y="820" as="targetPoint" />
          </mxGeometry>
        </mxCell>
        <mxCell id="h5CvUJYgVrHiaaVriEkw-80" value="" style="endArrow=none;html=1;rounded=0;strokeWidth=2;" edge="1" parent="1" source="h5CvUJYgVrHiaaVriEkw-43" target="h5CvUJYgVrHiaaVriEkw-65">
          <mxGeometry width="50" height="50" relative="1" as="geometry">
            <mxPoint x="1740" y="870" as="sourcePoint" />
            <mxPoint x="1790" y="820" as="targetPoint" />
          </mxGeometry>
        </mxCell>
        <mxCell id="h5CvUJYgVrHiaaVriEkw-81" value="" style="endArrow=none;html=1;rounded=0;strokeWidth=2;" edge="1" parent="1" source="h5CvUJYgVrHiaaVriEkw-43" target="h5CvUJYgVrHiaaVriEkw-54">
          <mxGeometry width="50" height="50" relative="1" as="geometry">
            <mxPoint x="1740" y="870" as="sourcePoint" />
            <mxPoint x="1790" y="820" as="targetPoint" />
          </mxGeometry>
        </mxCell>
        <mxCell id="h5CvUJYgVrHiaaVriEkw-82" value="" style="endArrow=none;html=1;rounded=0;strokeWidth=2;" edge="1" parent="1" source="h5CvUJYgVrHiaaVriEkw-58" target="h5CvUJYgVrHiaaVriEkw-43">
          <mxGeometry width="50" height="50" relative="1" as="geometry">
            <mxPoint x="1740" y="870" as="sourcePoint" />
            <mxPoint x="1790" y="820" as="targetPoint" />
          </mxGeometry>
        </mxCell>
        <mxCell id="h5CvUJYgVrHiaaVriEkw-83" value="" style="endArrow=none;html=1;rounded=0;strokeWidth=2;" edge="1" parent="1" source="h5CvUJYgVrHiaaVriEkw-57" target="h5CvUJYgVrHiaaVriEkw-43">
          <mxGeometry width="50" height="50" relative="1" as="geometry">
            <mxPoint x="1740" y="870" as="sourcePoint" />
            <mxPoint x="1790" y="820" as="targetPoint" />
          </mxGeometry>
        </mxCell>
        <mxCell id="h5CvUJYgVrHiaaVriEkw-84" value="" style="endArrow=none;html=1;rounded=0;entryX=0.5;entryY=1;entryDx=0;entryDy=0;entryPerimeter=0;strokeWidth=2;" edge="1" parent="1" source="h5CvUJYgVrHiaaVriEkw-56" target="h5CvUJYgVrHiaaVriEkw-43">
          <mxGeometry width="50" height="50" relative="1" as="geometry">
            <mxPoint x="1740" y="870" as="sourcePoint" />
            <mxPoint x="1790" y="820" as="targetPoint" />
          </mxGeometry>
        </mxCell>
        <mxCell id="h5CvUJYgVrHiaaVriEkw-85" value="" style="endArrow=none;html=1;rounded=0;strokeWidth=2;" edge="1" parent="1" source="h5CvUJYgVrHiaaVriEkw-43" target="h5CvUJYgVrHiaaVriEkw-62">
          <mxGeometry width="50" height="50" relative="1" as="geometry">
            <mxPoint x="1740" y="870" as="sourcePoint" />
            <mxPoint x="1790" y="820" as="targetPoint" />
          </mxGeometry>
        </mxCell>
        <mxCell id="h5CvUJYgVrHiaaVriEkw-86" value="&lt;font style=&quot;font-size: 14px;&quot;&gt;CAT6&lt;/font&gt;" style="text;strokeColor=none;align=center;fillColor=none;html=1;verticalAlign=middle;whiteSpace=wrap;rounded=0;" vertex="1" parent="1">
          <mxGeometry x="1940" y="670" width="60" height="30" as="geometry" />
        </mxCell>
        <mxCell id="h5CvUJYgVrHiaaVriEkw-87" value="&lt;font style=&quot;font-size: 14px;&quot;&gt;CAT6&lt;/font&gt;" style="text;strokeColor=none;align=center;fillColor=none;html=1;verticalAlign=middle;whiteSpace=wrap;rounded=0;" vertex="1" parent="1">
          <mxGeometry x="1960" y="820" width="60" height="30" as="geometry" />
        </mxCell>
        <mxCell id="h5CvUJYgVrHiaaVriEkw-88" value="&lt;font style=&quot;font-size: 14px;&quot;&gt;CAT6&lt;/font&gt;" style="text;strokeColor=none;align=center;fillColor=none;html=1;verticalAlign=middle;whiteSpace=wrap;rounded=0;" vertex="1" parent="1">
          <mxGeometry x="1870" y="900" width="60" height="30" as="geometry" />
        </mxCell>
        <mxCell id="h5CvUJYgVrHiaaVriEkw-89" value="&lt;font style=&quot;font-size: 14px;&quot;&gt;CAT6&lt;/font&gt;" style="text;strokeColor=none;align=center;fillColor=none;html=1;verticalAlign=middle;whiteSpace=wrap;rounded=0;" vertex="1" parent="1">
          <mxGeometry x="1775" y="920" width="60" height="30" as="geometry" />
        </mxCell>
        <mxCell id="h5CvUJYgVrHiaaVriEkw-90" value="&lt;font style=&quot;font-size: 14px;&quot;&gt;CAT6&lt;/font&gt;" style="text;strokeColor=none;align=center;fillColor=none;html=1;verticalAlign=middle;whiteSpace=wrap;rounded=0;" vertex="1" parent="1">
          <mxGeometry x="1675.01" y="930" width="60" height="30" as="geometry" />
        </mxCell>
        <mxCell id="h5CvUJYgVrHiaaVriEkw-91" value="&lt;font style=&quot;font-size: 14px;&quot;&gt;CAT6&lt;/font&gt;" style="text;strokeColor=none;align=center;fillColor=none;html=1;verticalAlign=middle;whiteSpace=wrap;rounded=0;" vertex="1" parent="1">
          <mxGeometry x="1580" y="875" width="60" height="30" as="geometry" />
        </mxCell>
        <mxCell id="h5CvUJYgVrHiaaVriEkw-92" value="&lt;font style=&quot;font-size: 14px;&quot;&gt;CAT6&lt;/font&gt;" style="text;strokeColor=none;align=center;fillColor=none;html=1;verticalAlign=middle;whiteSpace=wrap;rounded=0;" vertex="1" parent="1">
          <mxGeometry x="1510" y="810" width="60" height="30" as="geometry" />
        </mxCell>
        <mxCell id="h5CvUJYgVrHiaaVriEkw-93" value="&lt;font style=&quot;font-size: 14px;&quot;&gt;CAT6&lt;/font&gt;" style="text;strokeColor=none;align=center;fillColor=none;html=1;verticalAlign=middle;whiteSpace=wrap;rounded=0;" vertex="1" parent="1">
          <mxGeometry x="1510" y="730" width="60" height="30" as="geometry" />
        </mxCell>
        <mxCell id="h5CvUJYgVrHiaaVriEkw-94" value="&lt;span style=&quot;font-size: 16px;&quot;&gt;Workstation&lt;br&gt;172.16.100.4/22&lt;br&gt;&lt;/span&gt;" style="text;strokeColor=none;align=center;fillColor=none;html=1;verticalAlign=middle;whiteSpace=wrap;rounded=0;" vertex="1" parent="1">
          <mxGeometry x="1530" y="1170" width="60" height="30" as="geometry" />
        </mxCell>
        <mxCell id="h5CvUJYgVrHiaaVriEkw-95" value="&lt;span style=&quot;font-size: 16px;&quot;&gt;Workstation&lt;br&gt;172.16.100.5/22&lt;br&gt;&lt;/span&gt;" style="text;strokeColor=none;align=center;fillColor=none;html=1;verticalAlign=middle;whiteSpace=wrap;rounded=0;" vertex="1" parent="1">
          <mxGeometry x="1741.45" y="1210" width="60" height="30" as="geometry" />
        </mxCell>
        <mxCell id="h5CvUJYgVrHiaaVriEkw-96" value="&lt;span style=&quot;font-size: 16px;&quot;&gt;Workstation&lt;br&gt;172.16.100.6/22&lt;br&gt;&lt;/span&gt;" style="text;strokeColor=none;align=center;fillColor=none;html=1;verticalAlign=middle;whiteSpace=wrap;rounded=0;" vertex="1" parent="1">
          <mxGeometry x="1930" y="1200" width="60" height="30" as="geometry" />
        </mxCell>
        <mxCell id="h5CvUJYgVrHiaaVriEkw-97" value="&lt;span style=&quot;font-size: 16px;&quot;&gt;Workstation&lt;br&gt;172.16.100.7/22&lt;br&gt;&lt;/span&gt;" style="text;strokeColor=none;align=center;fillColor=none;html=1;verticalAlign=middle;whiteSpace=wrap;rounded=0;" vertex="1" parent="1">
          <mxGeometry x="2130" y="1140" width="60" height="30" as="geometry" />
        </mxCell>
        <mxCell id="h5CvUJYgVrHiaaVriEkw-98" value="&lt;span style=&quot;font-size: 16px;&quot;&gt;Workstation&lt;br&gt;172.16.100.8/22&lt;br&gt;&lt;/span&gt;" style="text;strokeColor=none;align=center;fillColor=none;html=1;verticalAlign=middle;whiteSpace=wrap;rounded=0;" vertex="1" parent="1">
          <mxGeometry x="2240" y="970" width="60" height="30" as="geometry" />
        </mxCell>
        <mxCell id="h5CvUJYgVrHiaaVriEkw-99" value="&lt;span style=&quot;font-size: 16px;&quot;&gt;Printer&lt;br&gt;172.16.100.9/22&lt;br&gt;&lt;/span&gt;" style="text;strokeColor=none;align=center;fillColor=none;html=1;verticalAlign=middle;whiteSpace=wrap;rounded=0;" vertex="1" parent="1">
          <mxGeometry x="2300" y="655" width="60" height="30" as="geometry" />
        </mxCell>
        <mxCell id="h5CvUJYgVrHiaaVriEkw-100" value="&lt;span style=&quot;font-size: 16px;&quot;&gt;File Server&lt;br&gt;172.16.100.10/22&lt;br&gt;&lt;/span&gt;" style="text;strokeColor=none;align=center;fillColor=none;html=1;verticalAlign=middle;whiteSpace=wrap;rounded=0;" vertex="1" parent="1">
          <mxGeometry x="1190" y="820" width="60" height="30" as="geometry" />
        </mxCell>
        <mxCell id="h5CvUJYgVrHiaaVriEkw-101" value="&lt;span style=&quot;font-size: 16px;&quot;&gt;Interner Web Server&lt;br&gt;172.16.100.11/22&lt;br&gt;&lt;/span&gt;" style="text;strokeColor=none;align=center;fillColor=none;html=1;verticalAlign=middle;whiteSpace=wrap;rounded=0;" vertex="1" parent="1">
          <mxGeometry x="1160" y="1060" width="180" height="30" as="geometry" />
        </mxCell>
        <mxCell id="h5CvUJYgVrHiaaVriEkw-102" value="&lt;span style=&quot;font-size: 16px;&quot;&gt;Guest 1&lt;br&gt;172.16.100.12/22&lt;br&gt;&lt;/span&gt;" style="text;strokeColor=none;align=center;fillColor=none;html=1;verticalAlign=middle;whiteSpace=wrap;rounded=0;" vertex="1" parent="1">
          <mxGeometry x="1090" y="510" width="60" height="30" as="geometry" />
        </mxCell>
        <mxCell id="h5CvUJYgVrHiaaVriEkw-103" value="&lt;span style=&quot;font-size: 16px;&quot;&gt;Guest 2&lt;br&gt;172.16.100.13/22&lt;br&gt;&lt;/span&gt;" style="text;strokeColor=none;align=center;fillColor=none;html=1;verticalAlign=middle;whiteSpace=wrap;rounded=0;" vertex="1" parent="1">
          <mxGeometry x="1260" y="360" width="60" height="30" as="geometry" />
        </mxCell>
      </root>
    </mxGraphModel>
  </diagram>
</mxfile>
